<?xml version="1.0" encoding="utf-8"?>
<!-- Uploaded to: SVG Repo, www.svgrepo.com, Generator: SVG Repo Mixer Tools -->
<svg width="800px" height="800px" viewBox="0 0 1024 1024" fill="#000000" class="icon"  version="1.1" xmlns="http://www.w3.org/2000/svg"><path d="M336.150126 671.57242c-79.30497 0-143.830841-64.517874-143.830841-143.83084s64.525871-143.828841 143.830841-143.828842 143.830841 64.515875 143.83084 143.828842-64.525871 143.830841-143.83084 143.83084z m0-271.679144c-70.495083 0-127.848303 57.35322-127.848304 127.848304s57.35322 127.848303 127.848304 127.848303 127.848303-57.35322 127.848303-127.848303-57.35322-127.848303-127.848303-127.848304z" fill="" /><path d="M336.150126 703.535496c-79.30497 0-143.830841-64.515875-143.830841-143.830841a7.986271 7.986271 0 0 1 7.992268-7.990269 7.986271 7.986271 0 0 1 7.990269 7.990269c0 70.497083 57.35322 127.850302 127.848304 127.850302s127.848303-57.35322 127.848303-127.850302a7.986271 7.986271 0 0 1 7.990269-7.990269 7.986271 7.986271 0 0 1 7.992268 7.990269c0 79.312966-64.525871 143.830841-143.83084 143.830841z" fill="" /><path d="M200.311553 567.694924a7.986271 7.986271 0 0 1-7.992268-7.992268v-31.961076a7.986271 7.986271 0 0 1 7.992268-7.990269 7.986271 7.986271 0 0 1 7.990269 7.990269v31.961076a7.986271 7.986271 0 0 1-7.990269 7.992268zM471.990697 567.694924a7.986271 7.986271 0 0 1-7.990269-7.992268v-31.961076a7.986271 7.986271 0 0 1 7.990269-7.990269 7.986271 7.986271 0 0 1 7.992268 7.990269v31.961076a7.98827 7.98827 0 0 1-7.992268 7.992268zM336.150126 591.66773c-35.247542 0-63.926151-28.670613-63.926151-63.92615s28.678609-63.924152 63.926151-63.924152 63.924152 28.668614 63.924151 63.924152-28.67661 63.926151-63.924151 63.92615z m0-111.867765c-26.437655 0-47.943614 21.505958-47.943614 47.941615s21.505958 47.941614 47.943614 47.941614 47.943614-21.505958 47.943613-47.941614-21.505958-47.941614-47.943613-47.941615z" fill="" /><path d="M389.775086 551.712387a8.01026 8.01026 0 0 1-7.662422-5.709334C376.119463 525.838468 357.220287 511.761042 336.150126 511.761042s-39.969337 14.077427-45.96054 34.242011c-1.257413 4.228026-5.649362 6.61691-9.941358 5.383486a8.002263 8.002263 0 0 1-5.383486-9.943357c7.998265-26.889444 33.1945-45.664678 61.287383-45.664678s53.289118 18.775233 61.287383 45.664678a8.006262 8.006262 0 0 1-5.383487 9.943357c-0.765642 0.219897-1.531285 0.325848-2.280935 0.325848zM296.120817 495.70254a7.970278 7.970278 0 0 1-5.649362-2.340907l-56.013846-56.013845a7.98827 7.98827 0 1 1 11.298725-11.298725l56.011846 56.013846a7.984272 7.984272 0 0 1 0 11.298724 7.962282 7.962282 0 0 1-5.647363 2.340907zM336.150126 671.57242a7.986271 7.986271 0 0 1-7.990269-7.992268v-79.90469a7.986271 7.986271 0 0 1 7.990269-7.992268 7.986271 7.986271 0 0 1 7.990269 7.992268v79.90469a7.986271 7.986271 0 0 1-7.990269 7.992268zM424.031091 144.194671c-39.657483 0-71.91642-32.258937-71.91642-71.914421 0-39.657483 32.258937-71.91642 71.91642-71.91642 23.806884 0 46.186434 12.14233 59.484225 31.961076H487.955243a7.986271 7.986271 0 0 1 7.990269 7.990269v63.926151A7.986271 7.986271 0 0 1 487.955243 112.231595h-4.439927c-13.303788 19.822744-35.683338 31.963075-59.484225 31.963076z m0-127.848304c-30.8396 0-55.933883 25.096282-55.933883 55.933883s25.096282 55.931884 55.933883 55.931883c19.672814 0 38.126198-10.720994 48.153516-27.982933a7.976276 7.976276 0 0 1 6.906775-3.980142h0.873592V48.309443h-0.873592a7.998265 7.998265 0 0 1-6.914772-3.980142c-10.167253-17.527816-28.160851-27.982934-48.145519-27.982934z" fill="" /><path d="M535.914849 112.233594H487.955243a7.986271 7.986271 0 0 1-7.990269-7.990269V40.317175A7.986271 7.986271 0 0 1 487.955243 32.326905h47.959606c2.123009 0 4.150062 0.843606 5.649362 2.340907l15.980538 15.980539a7.980274 7.980274 0 0 1 2.340907 5.649362v31.963075a7.980274 7.980274 0 0 1-2.340907 5.649362l-15.980538 15.980538a7.982273 7.982273 0 0 1-5.649362 2.342906z m-39.967338-15.982537h36.658883l11.298724-11.298724V59.606168l-11.298724-11.298724h-36.658883v47.943613z" fill="" /><path d="M519.934311 112.233594A7.986271 7.986271 0 0 1 511.944042 104.243325V40.317175c0-4.415938 3.574331-7.990269 7.990269-7.99027s7.990269 3.574331 7.990269 7.99027v63.92615a7.98827 7.98827 0 0 1-7.990269 7.990269zM471.974705 96.251057a7.974277 7.974277 0 0 1-5.649363-2.340907l-15.980538-15.982537a7.984272 7.984272 0 0 1 0-11.298724l15.980538-15.982537a7.98827 7.98827 0 1 1 11.298725 11.298724l-10.331176 10.331176 10.331176 10.331176a7.984272 7.984272 0 0 1 0 11.298724 7.94629 7.94629 0 0 1-5.649362 2.344905z" fill="" /><path d="M471.974705 96.251057h-47.941615a7.986271 7.986271 0 0 1-7.990269-7.990269 7.986271 7.986271 0 0 1 7.990269-7.990269h47.941615a7.986271 7.986271 0 0 1 7.992268 7.990269 7.98827 7.98827 0 0 1-7.992268 7.990269zM471.974705 64.289981h-47.941615c-4.415938 0-7.990269-3.574331-7.990269-7.990269s3.574331-7.990269 7.990269-7.990269h47.941615c4.417937 0 7.992268 3.574331 7.992268 7.990269s-3.574331 7.990269-7.992268 7.990269zM631.802076 128.214133a7.984272 7.984272 0 0 1-7.990269-7.99027c0-22.035711-17.917634-39.951345-39.953345-39.951345a7.986271 7.986271 0 0 1-7.990269-7.990269 7.986271 7.986271 0 0 1 7.990269-7.992268c30.8396 0 55.933883 25.096282 55.933883 55.933882a7.986271 7.986271 0 0 1-7.990269 7.99027z" fill="" /><path d="M631.802076 224.10136a7.984272 7.984272 0 0 1-7.990269-7.99027V120.223863a7.984272 7.984272 0 0 1 7.990269-7.990269 7.986271 7.986271 0 0 1 7.990269 7.990269v95.887227a7.986271 7.986271 0 0 1-7.990269 7.99027zM519.934311 224.10136h-31.963076a7.986271 7.986271 0 0 1-7.990269-7.99027V184.148015a7.984272 7.984272 0 0 1 7.990269-7.990269h31.963076a7.984272 7.984272 0 0 1 7.990269 7.990269v31.961076a7.986271 7.986271 0 0 1-7.990269 7.992269z m-23.972807-15.982538H511.944042v-15.980538h-15.982538v15.980538zM935.444295 815.403261H88.443788a7.986271 7.986271 0 0 1-7.990269-7.990269V280.035242a7.986271 7.986271 0 0 1 7.990269-7.992268h847.000507a7.986271 7.986271 0 0 1 7.990269 7.992268v527.37775a7.986271 7.986271 0 0 1-7.990269 7.990269z m-839.010238-15.982537h831.019969V288.025511H96.434057v511.395213z" fill="" /><path d="M967.405371 288.025511H56.480713a7.986271 7.986271 0 0 1-7.990269-7.990269v-63.926151a7.986271 7.986271 0 0 1 7.990269-7.990269h910.924658a7.986271 7.986271 0 0 1 7.990269 7.990269v63.926151a7.986271 7.986271 0 0 1-7.990269 7.990269z m-902.934389-15.982537H959.415102v-47.943614H64.470982v47.943614z" fill="" /><path d="M919.461758 256.062436H104.426325a7.986271 7.986271 0 0 1-7.992268-7.992268 7.986271 7.986271 0 0 1 7.992268-7.990269h815.037432a7.986271 7.986271 0 0 1 7.990269 7.990269 7.986271 7.986271 0 0 1-7.992268 7.992268zM727.689303 1023.156254a7.856332 7.856332 0 0 1-3.574331-0.843606l-215.745261-107.871631a7.994267 7.994267 0 0 1-3.574331-10.720994c1.975078-3.950156 6.782833-5.571399 10.722993-3.574331l215.743262 107.871631a7.998265 7.998265 0 0 1 3.574331 10.720994 7.986271 7.986271 0 0 1-7.146663 4.417937zM791.611455 1023.156254a7.848335 7.848335 0 0 1-3.572331-0.843606l-279.669413-139.834707a7.992268 7.992268 0 0 1-3.574331-10.720994c1.975078-3.932164 6.782833-5.571399 10.722993-3.572332l279.667413 139.832708a7.990269 7.990269 0 1 1-3.574331 15.138931z" fill="" /><path d="M791.611455 1023.156254h-63.924151c-4.415938 0-7.990269-3.574331-7.990269-7.990269s3.574331-7.990269 7.990269-7.990269h63.924151c4.417937 0 7.992268 3.574331 7.992269 7.990269s-3.574331 7.990269-7.992269 7.990269zM296.206777 1023.156254a7.992268 7.992268 0 0 1-3.582328-15.138931l215.745262-107.871631c3.956153-1.997068 8.739919-0.375825 10.720994 3.574331a7.992268 7.992268 0 0 1-3.572332 10.720994l-215.747261 107.871631a7.856332 7.856332 0 0 1-3.564335 0.843606zM232.282625 1023.156254a7.992268 7.992268 0 0 1-3.582327-15.138931l279.669413-139.832708c3.956153-1.999067 8.739919-0.359832 10.720994 3.572332a7.992268 7.992268 0 0 1-3.572332 10.720994l-279.669413 139.834707a7.876322 7.876322 0 0 1-3.566335 0.843606z" fill="" /><path d="M296.19878 1023.156254H232.274629c-4.415938 0-7.990269-3.574331-7.990269-7.990269s3.574331-7.990269 7.990269-7.990269h63.924151c4.415938 0 7.992268 3.574331 7.992268 7.990269s-3.57633 7.990269-7.992268 7.990269zM495.961504 891.311817a7.986271 7.986271 0 0 1-7.990269-7.99027v-75.910554c0-4.415938 3.574331-7.990269 7.990269-7.990269s7.990269 3.574331 7.990269 7.990269v75.910554a7.984272 7.984272 0 0 1-7.990269 7.99027z" fill="" /><path d="M527.92458 891.311817a7.984272 7.984272 0 0 1-7.990269-7.99027v-75.910554a7.984272 7.984272 0 0 1 7.990269-7.990269 7.986271 7.986271 0 0 1 7.990269 7.990269v75.910554a7.986271 7.986271 0 0 1-7.990269 7.99027z" fill="" /><path d="M527.92458 1023.156254a7.984272 7.984272 0 0 1-7.990269-7.990269v-99.883361a7.984272 7.984272 0 0 1 7.990269-7.990269 7.986271 7.986271 0 0 1 7.990269 7.990269v99.883361a7.986271 7.986271 0 0 1-7.990269 7.990269z" fill="" /><path d="M527.92458 1023.156254h-31.963076c-4.415938 0-7.990269-3.574331-7.990269-7.990269s3.574331-7.990269 7.990269-7.990269h31.963076c4.415938 0 7.990269 3.574331 7.990269 7.990269s-3.574331 7.990269-7.990269 7.990269z" fill="" /><path d="M495.961504 1023.156254a7.986271 7.986271 0 0 1-7.990269-7.990269v-99.883361c0-4.415938 3.574331-7.990269 7.990269-7.990269s7.990269 3.574331 7.990269 7.990269v99.883361a7.984272 7.984272 0 0 1-7.990269 7.990269z" fill="" /><path d="M8.569084 479.799965a7.986271 7.986271 0 0 1-7.990269-7.992268c0-30.837601 25.094283-55.933883 55.931884-55.933882a7.986271 7.986271 0 0 1 7.990269 7.990269 7.986271 7.986271 0 0 1-7.990269 7.990269c-22.029714 0-39.951345 17.915635-39.951346 39.953344a7.986271 7.986271 0 0 1-7.990269 7.992268z" fill="" /><path d="M56.480713 527.74158c-30.837601 0-55.931884-25.096282-55.931884-55.933883a7.984272 7.984272 0 0 1 7.990269-7.990269 7.986271 7.986271 0 0 1 7.990269 7.990269c0 22.035711 17.923631 39.953344 39.951346 39.953345a7.986271 7.986271 0 0 1 7.990269 7.990269 7.984272 7.984272 0 0 1-7.990269 7.990269zM168.348478 431.854353H56.512698a7.986271 7.986271 0 0 1-7.990269-7.990269 7.986271 7.986271 0 0 1 7.990269-7.990269h111.83578a7.986271 7.986271 0 0 1 7.992268 7.990269 7.986271 7.986271 0 0 1-7.992268 7.990269z" fill="" /><path d="M967.373386 431.854353a7.986271 7.986271 0 0 1-7.990269-7.990269 7.986271 7.986271 0 0 1 7.990269-7.990269c22.035711 0 39.953344-17.915635 39.953345-39.953345a7.984272 7.984272 0 0 1 7.990269-7.990269 7.986271 7.986271 0 0 1 7.990269 7.990269c0.001999 30.8396-25.094283 55.933883-55.933883 55.933883z" fill="" /><path d="M1015.348985 383.912738a7.986271 7.986271 0 0 1-7.990269-7.992268c0-22.035711-17.917634-39.953344-39.953345-39.953344a7.986271 7.986271 0 0 1-7.990269-7.990269 7.986271 7.986271 0 0 1 7.990269-7.990269c30.8396 0 55.933883 25.096282 55.933883 55.933882a7.986271 7.986271 0 0 1-7.990269 7.992268zM967.373386 431.854353h-79.872704a7.986271 7.986271 0 0 1-7.992269-7.990269 7.986271 7.986271 0 0 1 7.992269-7.990269h79.872704a7.986271 7.986271 0 0 1 7.990269 7.990269 7.984272 7.984272 0 0 1-7.990269 7.990269z" fill="" /><path d="M8.569084 719.516034a7.984272 7.984272 0 0 1-7.990269-7.990269c0-30.8396 25.094283-55.933883 55.931884-55.933883a7.986271 7.986271 0 0 1 7.990269 7.990269 7.986271 7.986271 0 0 1-7.990269 7.992268c-22.029714 0-39.951345 17.915635-39.951346 39.951346a7.986271 7.986271 0 0 1-7.990269 7.990269z" fill="" /><path d="M168.348478 671.57242H56.512698a7.986271 7.986271 0 0 1-7.990269-7.992268 7.986271 7.986271 0 0 1 7.990269-7.990269h111.83578a7.986271 7.986271 0 0 1 7.992268 7.990269 7.986271 7.986271 0 0 1-7.992268 7.992268z" fill="" /><path d="M967.373386 671.57242a7.986271 7.986271 0 0 1-7.990269-7.992268 7.986271 7.986271 0 0 1 7.990269-7.990269c22.035711 0 39.953344-17.915635 39.953345-39.951345a7.984272 7.984272 0 0 1 7.990269-7.990269 7.986271 7.986271 0 0 1 7.990269 7.990269c0.001999 30.8396-25.094283 55.933883-55.933883 55.933882z" fill="" /><path d="M1015.348985 623.628807a7.984272 7.984272 0 0 1-7.990269-7.990269c0-22.035711-17.917634-39.953344-39.953345-39.953345a7.984272 7.984272 0 0 1-7.990269-7.98827 7.986271 7.986271 0 0 1 7.990269-7.992268c30.8396 0 55.933883 25.096282 55.933883 55.933883a7.986271 7.986271 0 0 1-7.990269 7.990269zM967.373386 671.57242h-207.723007a7.986271 7.986271 0 0 1-7.990269-7.992268 7.986271 7.986271 0 0 1 7.990269-7.990269h207.723007a7.986271 7.986271 0 0 1 7.990269 7.990269 7.986271 7.986271 0 0 1-7.990269 7.992268z" fill="" /><path d="M823.57653 431.854353H535.914849a7.986271 7.986271 0 0 1-7.990269-7.990269 7.986271 7.986271 0 0 1 7.990269-7.990269h287.659682a7.986271 7.986271 0 0 1 7.990269 7.990269 7.982273 7.982273 0 0 1-7.98827 7.990269z" fill="" /><path d="M823.57653 479.799965H535.914849c-4.415938 0-7.990269-3.574331-7.990269-7.992268s3.574331-7.990269 7.990269-7.990269h287.659682c4.415938 0 7.990269 3.574331 7.990269 7.990269s-3.572332 7.992268-7.98827 7.992268z" fill="" /><path d="M823.57653 527.74158H535.914849a7.984272 7.984272 0 0 1-7.990269-7.990269 7.986271 7.986271 0 0 1 7.990269-7.990269h287.659682a7.986271 7.986271 0 0 1 7.990269 7.990269 7.982273 7.982273 0 0 1-7.98827 7.990269z" fill="" /><path d="M823.57653 575.699187H535.914849a7.984272 7.984272 0 0 1-7.990269-7.98827 7.986271 7.986271 0 0 1 7.990269-7.992268h287.659682a7.986271 7.986271 0 0 1 7.990269 7.992268 7.982273 7.982273 0 0 1-7.98827 7.98827z" fill="" /><path d="M823.57653 623.628807H535.914849c-4.415938 0-7.990269-3.574331-7.990269-7.990269s3.574331-7.990269 7.990269-7.990269h287.659682c4.415938 0 7.990269 3.574331 7.990269 7.990269s-3.572332 7.990269-7.98827 7.990269z" fill="" /><path d="M695.728227 671.57242h-159.811379a7.986271 7.986271 0 0 1-7.990269-7.992268 7.986271 7.986271 0 0 1 7.990269-7.990269h159.811379a7.984272 7.984272 0 0 1 7.98827 7.990269 7.984272 7.984272 0 0 1-7.98827 7.992268z" fill="" /><path d="M8.569084 1023.156254a7.984272 7.984272 0 0 1-7.990269-7.990269V711.525765a7.984272 7.984272 0 0 1 7.990269-7.990269 7.984272 7.984272 0 0 1 7.990269 7.990269V1015.165985a7.986271 7.986271 0 0 1-7.990269 7.990269z" fill="" /></svg>