<?xml version="1.0" encoding="utf-8"?>
<!-- Uploaded to: SVG Repo, www.svgrepo.com, Generator: SVG Repo Mixer Tools -->
<svg width="800px" height="800px" viewBox="0 0 1024 1024" fill="#000000" class="icon"  version="1.1" xmlns="http://www.w3.org/2000/svg"><path d="M40.622 184.1c-4.414 0-8.076-3.576-8.076-7.996 0-4.422 3.498-7.998 7.918-7.998h0.156a7.994 7.994 0 0 1 7.998 7.998 7.99 7.99 0 0 1-7.996 7.996zM72.612 184.1c-4.414 0-8.076-3.576-8.076-7.996 0-4.422 3.498-7.998 7.918-7.998h0.156a7.994 7.994 0 0 1 7.998 7.998 7.99 7.99 0 0 1-7.996 7.996zM104.602 184.1c-4.414 0-8.076-3.576-8.076-7.996 0-4.422 3.498-7.998 7.918-7.998h0.156a7.994 7.994 0 0 1 7.998 7.998 7.99 7.99 0 0 1-7.996 7.996z" fill="" /><path d="M1015.848 200.096H8.156a7.994 7.994 0 0 1-7.998-7.998v-15.994c0-13.23 10.762-23.994 23.992-23.994h975.702c13.23 0 23.992 10.764 23.992 23.994v15.994a7.994 7.994 0 0 1-7.996 7.998zM16.152 184.1h991.696v-7.996c0-4.344-3.656-7.998-7.996-7.998H24.15a8.008 8.008 0 0 0-7.998 7.998v7.996z" fill="" /><path d="M1015.848 871.89H8.156a7.994 7.994 0 0 1-7.998-7.998V192.098a7.994 7.994 0 0 1 7.998-7.998h1007.692a7.994 7.994 0 0 1 7.996 7.998v671.794a7.994 7.994 0 0 1-7.996 7.998zM16.152 855.894h991.696V200.096H16.152v655.798z" fill="" /><path d="M823.906 344.05H56.148a7.992 7.992 0 0 1-7.998-7.996v-95.97a7.994 7.994 0 0 1 7.998-7.998h767.758a7.992 7.992 0 0 1 7.996 7.998v95.97a7.992 7.992 0 0 1-7.996 7.996z m-759.76-15.994h751.76V248.08H64.146v79.976z" fill="" /><path d="M951.868 344.05h-127.96c-4.422 0-8-3.576-8-7.996v-95.97a7.994 7.994 0 0 1 8-7.998h127.96a7.992 7.992 0 0 1 7.996 7.998v95.97a7.992 7.992 0 0 1-7.996 7.996z m-119.966-15.994h111.964V248.08h-111.964v79.976z" fill="" /><path d="M879.886 312.06c-17.648 0-31.988-14.354-31.988-31.99 0-17.634 14.34-31.99 31.988-31.99 17.652 0 31.992 14.356 31.992 31.99 0 17.638-14.338 31.99-31.992 31.99z m0-47.984c-8.808 0-15.996 7.17-15.996 15.994 0 8.826 7.188 15.996 15.996 15.996 8.812 0 15.996-7.17 15.996-15.996 0-8.824-7.182-15.994-15.996-15.994z" fill="" /><path d="M919.876 328.056a7.96 7.96 0 0 1-5.652-2.344l-23.058-23.054a7.998 7.998 0 0 1 11.308-11.308l23.058 23.054a7.998 7.998 0 0 1-5.656 13.652zM775.918 296.066H104.132c-4.42 0-7.998-3.578-7.998-7.998s3.576-7.998 7.998-7.998h671.786c4.422 0 8 3.578 8 7.998s-3.578 7.998-8 7.998zM727.934 871.89a7.96 7.96 0 0 1-5.652-2.344 7.994 7.994 0 0 1 0-11.308l47.984-47.986a7.996 7.996 0 1 1 11.308 11.31l-47.984 47.984a7.968 7.968 0 0 1-5.656 2.344zM815.906 783.916a7.994 7.994 0 0 1-5.652-13.65l199.938-199.94c3.124-3.124 8.184-3.124 11.308 0s3.124 8.186 0 11.308l-199.938 199.94a7.97 7.97 0 0 1-5.656 2.342zM807.91 871.89a7.998 7.998 0 0 1-5.656-13.652L1010.192 650.3a7.994 7.994 0 0 1 11.308 0 7.994 7.994 0 0 1 0 11.308L813.562 869.546a7.948 7.948 0 0 1-5.652 2.344z" fill="" /><path d="M815.906 783.916a7.966 7.966 0 0 1-5.652-2.342L402.378 373.7a7.996 7.996 0 1 1 11.308-11.31l407.876 407.876a7.994 7.994 0 0 1-5.656 13.65zM168.106 216.09a7.97 7.97 0 0 1-5.654-2.342l-15.996-15.996a7.994 7.994 0 0 1 0-11.308 7.994 7.994 0 0 1 11.308 0l15.996 15.996a7.994 7.994 0 0 1-5.654 13.65zM248.082 216.09a7.97 7.97 0 0 1-5.654-2.342l-15.996-15.996a7.996 7.996 0 1 1 11.31-11.308l15.994 15.996a7.994 7.994 0 0 1-5.654 13.65zM775.918 823.904a7.98 7.98 0 0 1-5.652-2.342L322.402 373.7a7.996 7.996 0 1 1 11.31-11.31l447.864 447.864a7.996 7.996 0 0 1-5.658 13.65zM807.91 663.954a7.976 7.976 0 0 1-5.656-2.344L578.324 437.68a7.996 7.996 0 1 1 11.308-11.31L813.562 650.3a7.994 7.994 0 0 1 0 11.308 7.95 7.95 0 0 1-5.652 2.346z" fill="" /><path d="M807.91 663.954a7.998 7.998 0 0 1-5.656-13.652l111.968-111.964a7.998 7.998 0 0 1 11.308 11.308l-111.968 111.964a7.958 7.958 0 0 1-5.652 2.344z" fill="" /><path d="M919.876 551.988a7.96 7.96 0 0 1-5.652-2.344l-175.95-175.946a8 8 0 0 1 0-11.31 7.994 7.994 0 0 1 11.308 0l175.95 175.948a7.998 7.998 0 0 1-5.656 13.652zM583.976 440.022a7.996 7.996 0 0 1-5.652-13.652l63.98-63.98a7.996 7.996 0 1 1 11.308 11.31l-63.98 63.98a7.98 7.98 0 0 1-5.656 2.342zM983.856 488.008a7.998 7.998 0 0 1-5.656-13.652l31.992-31.99a7.994 7.994 0 0 1 11.308 0 7.994 7.994 0 0 1 0 11.308l-31.988 31.99a7.976 7.976 0 0 1-5.656 2.344z" fill="" /><path d="M983.856 488.008a7.976 7.976 0 0 1-5.656-2.344l-63.976-63.98a7.994 7.994 0 0 1 0-11.308 7.994 7.994 0 0 1 11.308 0l63.98 63.98a7.998 7.998 0 0 1-5.656 13.652z" fill="" /><path d="M919.876 424.028a7.96 7.96 0 0 1-5.652-2.344 7.994 7.994 0 0 1 0-11.308l95.968-95.97a7.994 7.994 0 0 1 11.308 0 7.994 7.994 0 0 1 0 11.308l-95.968 95.97a7.98 7.98 0 0 1-5.656 2.344zM647.958 807.91a7.974 7.974 0 0 1-5.652-2.344L210.436 373.7a7.996 7.996 0 1 1 11.308-11.31L653.612 794.26a7.994 7.994 0 0 1-5.654 13.65z" fill="" /><path d="M583.976 871.89a7.994 7.994 0 0 1-5.652-13.652l63.98-63.98a7.994 7.994 0 0 1 11.308 0 7.994 7.994 0 0 1 0 11.308l-63.98 63.98a7.964 7.964 0 0 1-5.656 2.344zM56.14 535.992a7.996 7.996 0 0 1-5.654-13.652l159.952-159.952a7.996 7.996 0 1 1 11.308 11.31l-159.952 159.952a7.98 7.98 0 0 1-5.654 2.342z" fill="" /><path d="M266.576 746.428a7.98 7.98 0 0 1-5.654-2.342L50.486 533.65a7.996 7.996 0 1 1 11.308-11.31l210.436 210.438a7.994 7.994 0 0 1-5.654 13.65z" fill="" /><path d="M266.576 746.428a7.994 7.994 0 0 1-5.654-13.65l63.98-63.98a7.994 7.994 0 0 1 11.308 0 7.994 7.994 0 0 1 0 11.308l-63.98 63.98a7.98 7.98 0 0 1-5.654 2.342z" fill="" /><path d="M519.996 871.89a7.974 7.974 0 0 1-5.652-2.344l-189.442-189.442a7.994 7.994 0 0 1 0-11.308 7.994 7.994 0 0 1 11.308 0l189.442 189.442a7.994 7.994 0 0 1-5.656 13.652zM376.042 871.89a7.994 7.994 0 0 1-5.654-13.652l15.994-15.996a7.996 7.996 0 1 1 11.31 11.308l-15.996 15.996a7.964 7.964 0 0 1-5.654 2.344z" fill="" /><path d="M392.038 855.894a7.98 7.98 0 0 1-5.656-2.344l-63.98-63.98a7.996 7.996 0 1 1 11.31-11.308l63.98 63.98a7.994 7.994 0 0 1-5.654 13.652z" fill="" /><path d="M248.074 871.89a7.994 7.994 0 0 1-5.654-13.652l79.982-79.976a7.996 7.996 0 1 1 11.31 11.308l-79.984 79.976a7.964 7.964 0 0 1-5.654 2.344z" fill="" /><path d="M200.096 807.91a7.972 7.972 0 0 1-5.654-2.344L3.25 614.376a7.996 7.996 0 1 1 11.31-11.308l191.192 191.192a7.994 7.994 0 0 1-5.656 13.65z" fill="" /><path d="M136.116 871.89a7.994 7.994 0 0 1-5.654-13.652l63.98-63.98a7.996 7.996 0 1 1 11.31 11.308l-63.98 63.98a7.972 7.972 0 0 1-5.656 2.344z" fill="" /><path d="M24.15 263.842a7.972 7.972 0 0 1-5.654-2.344l-15.246-15.244a7.996 7.996 0 1 1 11.31-11.31l15.244 15.246a7.994 7.994 0 0 1-5.654 13.652z" fill="" /><path d="M8.156 472.012a7.996 7.996 0 0 1-5.656-13.652l95.978-95.97a7.996 7.996 0 1 1 11.31 11.31L13.81 469.67a7.98 7.98 0 0 1-5.654 2.342z" fill="" /><path d="M871.89 216.09a8 8 0 0 1-5.656-13.65l15.996-15.996a7.994 7.994 0 0 1 11.308 0 7.994 7.994 0 0 1 0 11.308l-15.996 15.996a7.928 7.928 0 0 1-5.652 2.342z" fill="" /><path d="M647.958 216.09a7.994 7.994 0 0 1-5.652-13.65l15.996-15.996a7.998 7.998 0 0 1 11.308 11.308l-15.996 15.996a7.978 7.978 0 0 1-5.656 2.342z" fill="" /><path d="M919.876 871.89a7.96 7.96 0 0 1-5.652-2.344 7.994 7.994 0 0 1 0-11.308l95.968-95.97a7.994 7.994 0 0 1 11.308 0 7.994 7.994 0 0 1 0 11.308l-95.968 95.97a7.972 7.972 0 0 1-5.656 2.344z" fill="" /></svg>