<?xml version="1.0" ?>
<!DOCTYPE svg  PUBLIC '-//W3C//DTD SVG 1.1//EN'  'http://www.w3.org/Graphics/SVG/1.1/DTD/svg11.dtd'>
<!-- Uploaded to: SVG Repo, www.svgrepo.com, Generator: SVG Repo Mixer Tools -->
<svg width="800px" height="800px" viewBox="0 0 32 32" enable-background="new 0 0 32 32" id="_x3C_Layer_x3E_" version="1.1" xml:space="preserve" xmlns="http://www.w3.org/2000/svg" xmlns:xlink="http://www.w3.org/1999/xlink">
<g id="Untact_x2C__contactless_x2C__app_x2C__mobile_x2C__taxi_x2C__transport_x2C__car">
<g id="XMLID_269_">
<path d="    M29.5,27.5v2c0,0.553-0.447,1-1,1h-1c-0.553,0-1-0.447-1-1v-2" fill="none" id="XMLID_318_" stroke="#263238" stroke-linecap="round" stroke-linejoin="round" stroke-miterlimit="10"/>
<line fill="none" id="XMLID_131_" stroke="#263238" stroke-linecap="round" stroke-linejoin="round" stroke-miterlimit="10" x1="30.5" x2="16.5" y1="30.5" y2="30.5"/>
<line fill="none" id="XMLID_317_" stroke="#263238" stroke-linecap="round" stroke-linejoin="round" stroke-miterlimit="10" x1="30.5" x2="16.5" y1="27.5" y2="27.5"/>
<path d="    M20.997,20.507c7.3,0.072,9.503,0.725,9.503,2.993v1.188" fill="none" id="XMLID_316_" stroke="#263238" stroke-linecap="round" stroke-linejoin="round" stroke-miterlimit="10"/>
<path d="    M26.5,25.5v-1c0-0.55,0.45-1,1-1h3v2H26.5z" fill="none" id="XMLID_315_" stroke="#263238" stroke-linecap="round" stroke-linejoin="round" stroke-miterlimit="10"/>
<path d="    M19,23.5h3.5c1.104,0,2,0.896,2,2l0,0" fill="none" id="XMLID_287_" stroke="#263238" stroke-linecap="round" stroke-linejoin="round" stroke-miterlimit="10"/>
<path d="    M28.569,21.206L26.82,15.95c-0.181-0.53-0.761-1.02-1.311-1.09c-0.873-0.11-2.279-0.252-4.01-0.32" fill="none" id="XMLID_286_" stroke="#263238" stroke-linecap="round" stroke-linejoin="round" stroke-miterlimit="10"/>
<line fill="none" id="XMLID_3211_" stroke="#263238" stroke-linecap="round" stroke-linejoin="round" stroke-miterlimit="10" x1="23.5" x2="21.5" y1="12.5" y2="12.5"/>
<g id="XMLID_282_">
<path d="M19.363,7.526l1.31-1.533     c0.539-0.63,0.465-1.576-0.165-2.114c-0.629-0.54-1.578-0.464-2.114,0.165L17.5,5.089" fill="none" id="XMLID_2205_" stroke="#263238" stroke-linecap="round" stroke-miterlimit="10"/>
<line fill="none" id="XMLID_38_" stroke="#263238" stroke-linecap="round" stroke-linejoin="round" stroke-miterlimit="10" x1="12.5" x2="9.499" y1="3.5" y2="3.5"/>
<path d="     M17.5,21.26v1.24c0,1.1-0.9,2-2,2h-5.001" fill="none" id="XMLID_2797_" stroke="#263238" stroke-linecap="round" stroke-linejoin="round" stroke-miterlimit="10"/>
<path d="     M4.5,15V3.5c0-1.1,0.9-2,2-2h9c1.1,0,2,0.9,2,2v6.479" fill="none" id="XMLID_301_" stroke="#263238" stroke-linecap="round" stroke-linejoin="round" stroke-miterlimit="10"/>
<g id="XMLID_44_">
<rect fill="none" height="0.5" id="XMLID_43_" stroke="#263238" stroke-linecap="round" stroke-linejoin="round" stroke-miterlimit="10" width="0.5" x="9.25" y="11"/>
<rect fill="none" height="0.5" id="XMLID_42_" stroke="#263238" stroke-linecap="round" stroke-linejoin="round" stroke-miterlimit="10" width="0.5" x="12.25" y="11"/>
<rect fill="none" height="0.5" id="XMLID_40_" stroke="#263238" stroke-linecap="round" stroke-linejoin="round" stroke-miterlimit="10" width="0.5" x="13.75" y="9.5"/>
<rect fill="none" height="0.5" id="XMLID_39_" stroke="#263238" stroke-linecap="round" stroke-linejoin="round" stroke-miterlimit="10" width="0.5" x="10.75" y="9.5"/>
<rect fill="none" height="0.5" id="XMLID_41_" stroke="#263238" stroke-linecap="round" stroke-linejoin="round" stroke-miterlimit="10" width="0.5" x="7.75" y="9.5"/>
</g>
<path d="     M14.901,26.502c-0.885,1.115-1.959,1.747-3.401,1.937V30.5" fill="none" id="XMLID_2227_" stroke="#263238" stroke-linecap="round" stroke-linejoin="round" stroke-miterlimit="10"/>
<path d="M18.96,10.26c-0.63-0.54-1.58-0.46-2.11,0.17     l-0.18,0.22c-0.54,0.63-0.46,1.57,0.17,2.11c0.28,0.24,0.63,0.36,0.97,0.36c0.43,0,0.85-0.18,1.14-0.53l0.17-0.21     C19.66,11.75,19.59,10.8,18.96,10.26z" fill="none" id="XMLID_2220_" stroke="#263238" stroke-miterlimit="10"/>
<path d="M19.3,13.63c-0.63-0.54-1.58-0.47-2.11,0.16     l-0.76,0.88c-0.54,0.63-0.46,1.57,0.17,2.11c0.28,0.24,0.62,0.36,0.97,0.36c0.42,0,0.84-0.18,1.14-0.52l0.76-0.88     C20.01,15.11,19.93,14.16,19.3,13.63z" fill="none" id="XMLID_2217_" stroke="#263238" stroke-miterlimit="10"/>
<path d="M19.26,17.74c-0.63-0.54-1.58-0.46-2.12,0.17     l-0.76,0.87c-0.54,0.63-0.46,1.58,0.17,2.12c0.28,0.24,0.63,0.36,0.97,0.36c0.43,0,0.85-0.18,1.14-0.53l0.76-0.87     C19.96,19.23,19.89,18.28,19.26,17.74z" fill="none" id="XMLID_2216_" stroke="#263238" stroke-miterlimit="10"/>
<path d="     M8.452,24.501c-0.388-4.925-3.952-7.2-3.952-7.2v-1.893v-2.84c0-3.531-2.5-3.031-3-3.031V30.5" fill="none" id="XMLID_2231_" stroke="#263238" stroke-linecap="round" stroke-linejoin="round" stroke-miterlimit="10"/>
</g>
</g>
</g>
</svg>