<?xml version="1.0" encoding="UTF-8"?>
<svg id="Capa_1" data-name="Capa 1" xmlns="http://www.w3.org/2000/svg" xmlns:xlink="http://www.w3.org/1999/xlink" viewBox="0 0 1080 1920">
  <defs>
    <style>
      .cls-1 {
        fill: url(#Degradado_sin_nombre_9-5);
      }

      .cls-2 {
        fill: url(#Degradado_sin_nombre_9-4);
      }

      .cls-3 {
        fill: url(#Degradado_sin_nombre_9-3);
      }

      .cls-4 {
        fill: url(#Degradado_sin_nombre_9-2);
      }

      .cls-5 {
        fill: url(#Degradado_sin_nombre_9);
      }
    </style>
    <linearGradient id="Degradado_sin_nombre_9" data-name="Degradado sin nombre 9" x1="31.32" y1="1568.4" x2="1114.46" y2="1380.94" gradientUnits="userSpaceOnUse">
      <stop offset="0" stop-color="#131b8e"/>
      <stop offset="1" stop-color="#4265d1"/>
    </linearGradient>
    <linearGradient id="Degradado_sin_nombre_9-2" data-name="Degradado sin nombre 9" x1="40.3" y1="1620.27" x2="1123.44" y2="1432.8" xlink:href="#Degradado_sin_nombre_9"/>
    <linearGradient id="Degradado_sin_nombre_9-3" data-name="Degradado sin nombre 9" x1="48.25" y1="1666.23" x2="1131.39" y2="1478.77" xlink:href="#Degradado_sin_nombre_9"/>
    <linearGradient id="Degradado_sin_nombre_9-4" data-name="Degradado sin nombre 9" x1="55.29" y1="1706.88" x2="1138.43" y2="1519.41" xlink:href="#Degradado_sin_nombre_9"/>
    <linearGradient id="Degradado_sin_nombre_9-5" data-name="Degradado sin nombre 9" x1="-14.77" y1="509.9" x2="819.6" y2="834.37" xlink:href="#Degradado_sin_nombre_9"/>
  </defs>
  <path class="cls-5" d="M199.08,1459.62h-115.39c-3.05,0-5.2-.22-6.46-.68-1.25-.44-1.88-2.28-1.88-5.51v-3.77h-26.36v15.6c0,2.69.67,5.11,2.02,7.27,1.34,2.15,3.09,3.94,5.24,5.38s4.61,2.55,7.4,3.36c2.78.81,5.6,1.21,8.47,1.21h78c-1.79,2.33-4.57,6.28-8.34,11.83-3.76,5.56-8.16,12.2-13.18,19.91-5.02,7.71-10.54,16.23-16.54,25.55-6.01,9.33-12.15,18.79-18.43,28.38-6.28,9.6-12.42,19.06-18.42,28.38-6.01,9.33-11.52,17.88-16.54,25.69-5.02,7.8-9.42,14.57-13.18,20.31-3.76,5.74-6.54,9.77-8.34,12.1h164.35v-28.25h-113.24l110.82-166.76Z"/>
  <polygon class="cls-4" points="368.8 1570.44 456.48 1570.44 456.48 1543.27 368.8 1543.27 368.8 1486.25 467.25 1486.25 467.25 1459.62 339.21 1459.62 339.21 1654.63 471.01 1654.63 471.01 1627.46 368.8 1627.46 368.8 1570.44"/>
  <polygon class="cls-3" points="642.35 1570.44 730.03 1570.44 730.03 1543.27 642.35 1543.27 642.35 1486.25 740.79 1486.25 740.79 1459.62 612.76 1459.62 612.76 1654.63 744.56 1654.63 744.56 1627.46 642.35 1627.46 642.35 1570.44"/>
  <path class="cls-2" d="M1037.07,1524.04c-3.86-11.92-10.04-22.68-18.56-32.28-8.52-9.59-19.59-17.35-33.22-23.27-13.63-5.92-30.31-8.87-50.03-8.87h-48.96v195.01h58.64c13.27,0,25.82-2.2,37.66-6.59,11.84-4.39,22.24-10.71,31.21-18.96,8.96-8.25,16.05-18.25,21.25-29.99,5.2-11.74,7.8-24.88,7.8-39.4,0-11.84-1.92-23.71-5.78-35.64ZM1008.02,1587.25c-3.68,8.52-8.79,15.69-15.33,21.52-6.55,5.83-14.26,10.26-23.13,13.31-8.88,3.05-18.52,4.57-28.92,4.57h-25.01v-138.79h27.7c8.61,0,17.08,1.39,25.42,4.17,8.34,2.78,15.82,7.08,22.46,12.91,6.63,5.83,12.01,13.13,16.14,21.92,4.12,8.79,6.18,19.1,6.18,30.93,0,11.12-1.84,20.94-5.51,29.45Z"/>
  <path class="cls-1" d="M927.35,764.13c.36-.43.73-.84,1.08-1.27.62-.76,1.21-1.54,1.81-2.32.29-.39.6-.77.88-1.16.59-.8,1.15-1.61,1.71-2.43.27-.4.56-.79.82-1.2.53-.8,1.04-1.61,1.54-2.42.28-.45.56-.89.83-1.35.46-.77.89-1.55,1.33-2.33.29-.52.59-1.05.87-1.58.38-.72.74-1.44,1.1-2.16.31-.62.62-1.24.91-1.87.3-.64.58-1.29.87-1.94.32-.73.64-1.45.94-2.19.23-.57.45-1.14.67-1.71.32-.82.63-1.65.92-2.48.18-.51.34-1.02.51-1.53.3-.9.59-1.8.86-2.71.14-.48.27-.96.4-1.44.26-.94.52-1.88.75-2.83.12-.49.22-.99.33-1.48.21-.94.42-1.87.61-2.82.11-.57.2-1.15.3-1.72.15-.87.31-1.74.43-2.61.11-.76.19-1.53.28-2.29.08-.7.18-1.4.25-2.1.14-1.48.25-2.97.31-4.46h0c.07-1.57.09-3.13.08-4.7,0-.6-.03-1.19-.05-1.78-.02-.95-.05-1.89-.11-2.84-.04-.73-.1-1.45-.16-2.17-.07-.8-.14-1.61-.22-2.41-.08-.77-.18-1.54-.28-2.3-.1-.76-.22-1.52-.34-2.27-.12-.76-.25-1.53-.39-2.28-.14-.78-.31-1.55-.47-2.33-.15-.71-.3-1.42-.47-2.12-.21-.88-.45-1.75-.68-2.63-.16-.58-.3-1.16-.47-1.73-.34-1.15-.71-2.29-1.09-3.42-.1-.29-.18-.58-.28-.86-3.92-11.26-10.13-21.92-18.68-31.27l-319.84-350.41c-17.86-19.53-42.3-29.44-66.83-29.44-21.81,0-43.69,7.84-61.06,23.72-36.9,33.74-39.46,90.99-5.72,127.89l184.79,202.45-430.57,7.42c-.68-.03-1.36-.02-2.04-.04s-1.36-.05-2.04-.05c-.09,0-.19,0-.28,0-.6,0-1.18.03-1.78.04-.84.02-1.68.04-2.52.08-.73.04-1.46.09-2.19.15-.69.05-1.37.1-2.06.17-.79.08-1.59.17-2.38.27-.61.08-1.22.16-1.84.24-.82.12-1.64.25-2.45.39-.58.1-1.17.21-1.75.32-.82.16-1.63.32-2.44.5-.59.13-1.18.28-1.77.42-.78.19-1.56.38-2.33.59-.64.17-1.28.37-1.92.56-.71.21-1.42.42-2.12.64-.75.24-1.48.5-2.23.76-.58.21-1.16.4-1.74.62-.92.35-1.84.72-2.75,1.1-.39.16-.78.31-1.16.47-1.19.51-2.37,1.06-3.55,1.62-.1.05-.21.09-.31.14-7.65,3.72-14.91,8.59-21.51,14.62-.02.02-.03.03-.05.05-1.08.99-2.14,2.01-3.18,3.06-.5.51-.98,1.03-1.46,1.54-.52.55-1.06,1.1-1.57,1.67-.6.67-1.17,1.35-1.75,2.03-.37.43-.75.86-1.11,1.3-.61.75-1.2,1.52-1.79,2.29-.3.4-.61.79-.91,1.19-.58.79-1.14,1.6-1.7,2.4-.28.41-.57.81-.84,1.22-.53.79-1.03,1.6-1.53,2.4-.28.46-.57.91-.84,1.37-.45.76-.89,1.53-1.32,2.31-.3.53-.6,1.06-.88,1.6-.38.71-.73,1.42-1.09,2.14-.31.63-.63,1.25-.92,1.89-.3.64-.58,1.28-.86,1.92-.32.73-.64,1.46-.95,2.21-.23.56-.44,1.13-.66,1.7-.32.83-.63,1.66-.93,2.49-.18.5-.34,1.01-.5,1.51-.3.9-.6,1.81-.87,2.73-.14.47-.26.94-.39,1.41-.26.95-.53,1.9-.76,2.86-.12.48-.22.96-.32,1.44-.21.95-.43,1.89-.61,2.85-.11.56-.19,1.12-.29,1.69-.15.88-.31,1.76-.44,2.65-.11.75-.19,1.5-.27,2.26-.08.71-.18,1.42-.25,2.13-.14,1.45-.24,2.91-.31,4.37,0,.03,0,.06,0,.1v.04c-.07,1.56-.09,3.12-.08,4.68,0,.6.03,1.19.05,1.79.03.96.05,1.91.11,2.87.04.72.1,1.44.16,2.16.07.82.14,1.65.23,2.47.08.76.18,1.52.28,2.27.11.78.23,1.57.35,2.35.12.75.24,1.49.38,2.23.15.82.33,1.64.51,2.46.15.67.29,1.35.45,2.02.24,1,.51,1.98.78,2.97.13.47.25.95.39,1.42,3.5,11.86,9.51,23.17,18.03,33.12.04.05.08.09.12.13.62.72,1.22,1.44,1.86,2.14l357.35,393.9c17.86,19.53,42.3,29.44,66.83,29.44,21.81,0,43.69-7.84,61.06-23.72,36.9-33.74,39.46-90.99,5.72-127.89l-223.1-245.93,431.39-7.44c.67.03,1.34.02,2.01.04.69.02,1.37.05,2.06.05.09,0,.19,0,.29,0,.59,0,1.17-.03,1.75-.04.85-.02,1.7-.04,2.54-.08.73-.04,1.45-.09,2.17-.15.69-.05,1.38-.1,2.08-.17.79-.08,1.58-.17,2.37-.27.62-.08,1.23-.16,1.85-.25.82-.12,1.63-.25,2.44-.39.59-.1,1.17-.21,1.76-.32.81-.16,1.62-.32,2.43-.5.6-.13,1.19-.28,1.79-.42.77-.19,1.55-.38,2.31-.59.65-.18,1.29-.37,1.94-.56.7-.21,1.4-.41,2.1-.64.75-.24,1.5-.51,2.24-.77.58-.2,1.15-.4,1.72-.61.93-.35,1.85-.72,2.77-1.1.38-.16.77-.3,1.15-.47,1.21-.52,2.41-1.07,3.6-1.65.08-.04.17-.08.25-.12,7.65-3.72,14.91-8.59,21.51-14.63.07-.06.13-.13.2-.19,1.03-.95,2.04-1.92,3.03-2.91.52-.52,1.01-1.07,1.52-1.6.51-.54,1.02-1.06,1.52-1.61.61-.68,1.19-1.37,1.78-2.06ZM496.1,393.96c-21.32-23.32-19.7-59.64,3.62-80.96,10.59-9.68,24.31-15.01,38.65-15.01,16.3,0,31.33,6.62,42.3,18.62l258.07,282.74c-8.03,11.36-21.59,15.61-30.06,16.86l-108.03,1.86-204.55-224.09ZM621.4,1071.91c21.32,23.32,19.7,59.64-3.62,80.96-10.59,9.68-24.31,15.01-38.65,15.01-16.3,0-31.33-6.62-42.23-18.54l-295.28-325.48c10.97-15.65,32.44-17.85,36.91-17.32.47.05.67-.13.67-.5l99.45-1.72,242.75,267.58Z"/>
</svg>