<?xml version="1.0" encoding="UTF-8"?>
<svg id="Capa_1" data-name="Capa 1" xmlns="http://www.w3.org/2000/svg" viewBox="0 0 936 310.07">
  <defs>
    <style>
      .cls-1 {
        fill: #214b5a;
      }

      .cls-1, .cls-2 {
        stroke-width: 0px;
      }

      .cls-2 {
        fill: #e86953;
      }
    </style>
  </defs>
  <polygon class="cls-2" points="140.81 150.39 121.38 129.23 140.81 108.08 161.39 108.08 141.86 129.23 161.39 150.39 140.81 150.39"/>
  <polygon class="cls-1" points="776.4 108.08 796.99 108.08 816.42 129.23 796.99 150.39 776.4 150.39 795.93 129.23 776.4 108.08"/>
  <g>
    <path class="cls-1" d="M174.82,110.71c3-5.44,7.19-9.68,12.57-12.72,5.37-3.04,11.46-4.56,18.27-4.56,8.34,0,15.49,2.2,21.43,6.61s9.91,10.41,11.92,18.02h-18.83c-1.4-2.94-3.39-5.18-5.96-6.71-2.57-1.54-5.49-2.31-8.76-2.31-5.27,0-9.54,1.84-12.82,5.51-3.27,3.67-4.91,8.58-4.91,14.72s1.64,11.05,4.91,14.72c3.27,3.67,7.54,5.51,12.82,5.51,3.27,0,6.19-.77,8.76-2.31,2.57-1.53,4.56-3.77,5.96-6.71h18.83c-2,7.61-5.97,13.61-11.92,17.97-5.94,4.37-13.08,6.57-21.43,6.57-6.81,0-12.9-1.52-18.27-4.56-5.38-3.04-9.56-7.26-12.57-12.67-3-5.41-4.51-11.58-4.51-18.53s1.5-13.14,4.51-18.57"/>
    <path class="cls-1" d="M257.73,161.68c-4.18-2.23-7.47-5.42-9.86-9.57-2.39-4.15-3.59-9-3.59-14.55s1.21-10.32,3.64-14.5c2.42-4.17,5.74-7.38,9.95-9.62,4.21-2.24,8.93-3.35,14.17-3.35s9.95,1.12,14.17,3.35c4.21,2.23,7.53,5.44,9.95,9.62,2.42,4.18,3.64,9.02,3.64,14.5s-1.23,10.33-3.69,14.5c-2.46,4.18-5.81,7.39-10.05,9.62-4.24,2.24-8.98,3.35-14.21,3.35s-9.94-1.12-14.12-3.35M279.85,147.42c2.2-2.29,3.3-5.58,3.3-9.86s-1.07-7.56-3.21-9.86c-2.14-2.29-4.77-3.45-7.89-3.45s-5.84,1.13-7.95,3.4c-2.11,2.26-3.16,5.57-3.16,9.9s1.04,7.57,3.11,9.86c2.07,2.3,4.67,3.45,7.8,3.45s5.79-1.15,7.99-3.45"/>
    <path class="cls-1" d="M308.37,123.01c2.07-4.15,4.9-7.34,8.47-9.57,3.57-2.24,7.56-3.35,11.97-3.35,3.51,0,6.71.74,9.62,2.2,2.9,1.47,5.18,3.45,6.84,5.94v-24.8h16.37v71.61h-16.37v-8.43c-1.53,2.55-3.72,4.59-6.56,6.13-2.84,1.53-6.14,2.3-9.91,2.3-4.4,0-8.39-1.13-11.97-3.4-3.57-2.26-6.4-5.48-8.47-9.67-2.08-4.18-3.11-9.01-3.11-14.5s1.04-10.31,3.11-14.45M341.87,127.89c-2.27-2.36-5.03-3.54-8.28-3.54s-6.01,1.17-8.28,3.49c-2.27,2.33-3.4,5.54-3.4,9.62s1.13,7.32,3.4,9.72c2.27,2.39,5.03,3.59,8.28,3.59s6.01-1.18,8.28-3.54c2.26-2.36,3.4-5.58,3.4-9.67s-1.13-7.3-3.4-9.67"/>
    <path class="cls-1" d="M423.57,141.48h-37.04c.25,3.32,1.32,5.86,3.21,7.61,1.88,1.76,4.19,2.64,6.94,2.64,4.08,0,6.92-1.73,8.52-5.17h17.42c-.89,3.51-2.51,6.67-4.83,9.48-2.33,2.81-5.25,5.01-8.76,6.61-3.51,1.6-7.43,2.39-11.77,2.39-5.23,0-9.89-1.11-13.98-3.35-4.08-2.23-7.28-5.42-9.57-9.57-2.3-4.14-3.45-9-3.45-14.55s1.13-10.4,3.4-14.55c2.26-4.15,5.44-7.34,9.52-9.57,4.08-2.24,8.77-3.35,14.07-3.35s9.77,1.08,13.79,3.25c4.02,2.17,7.16,5.27,9.43,9.29,2.27,4.02,3.4,8.71,3.4,14.07,0,1.53-.09,3.13-.29,4.79M407.11,132.39c0-2.81-.96-5.04-2.87-6.7-1.92-1.66-4.31-2.49-7.18-2.49s-5.06.8-6.94,2.39c-1.89,1.6-3.05,3.86-3.5,6.8h20.49Z"/>
    <path class="cls-2" d="M498.81,112.39c2.87-1.53,6.16-2.3,9.86-2.3,4.4,0,8.39,1.12,11.96,3.35,3.57,2.23,6.4,5.42,8.47,9.57,2.08,4.14,3.11,8.96,3.11,14.45s-1.04,10.32-3.11,14.5c-2.07,4.18-4.9,7.4-8.47,9.67-3.58,2.27-7.56,3.4-11.96,3.4-3.77,0-7.05-.75-9.86-2.25-2.81-1.5-5.01-3.5-6.6-5.98v8.23h-16.37v-71.61h16.37v24.98c1.53-2.49,3.73-4.5,6.6-6.03M512.16,127.84c-2.27-2.32-5.06-3.49-8.38-3.49s-6.02,1.18-8.28,3.54c-2.27,2.36-3.4,5.58-3.4,9.67s1.13,7.31,3.4,9.67c2.26,2.36,5.02,3.54,8.28,3.54s6.03-1.2,8.33-3.59c2.3-2.39,3.44-5.63,3.44-9.72s-1.13-7.29-3.4-9.62"/>
    <path class="cls-2" d="M564.38,112.82c2.87-1.69,6.06-2.54,9.57-2.54v17.32h-4.5c-4.09,0-7.15.88-9.19,2.63-2.04,1.76-3.06,4.84-3.06,9.24v25.56h-16.37v-54.18h16.37v8.9c1.91-2.93,4.31-5.25,7.18-6.94"/>
    <path class="cls-2" d="M581.66,123.01c2.07-4.15,4.9-7.34,8.47-9.57,3.57-2.24,7.56-3.35,11.97-3.35,3.77,0,7.07.77,9.91,2.3,2.84,1.53,5.03,3.54,6.56,6.03v-7.56h16.37v54.18h-16.37v-8.33c-1.6,2.49-3.81,4.5-6.65,6.03-2.84,1.53-6.14,2.3-9.91,2.3-4.34,0-8.3-1.13-11.87-3.4-3.57-2.26-6.4-5.48-8.47-9.67-2.08-4.18-3.11-9.01-3.11-14.5s1.04-10.31,3.11-14.45M615.16,127.89c-2.27-2.36-5.03-3.54-8.28-3.54s-6.01,1.17-8.28,3.49c-2.27,2.33-3.4,5.54-3.4,9.62s1.13,7.32,3.4,9.72c2.27,2.39,5.03,3.59,8.28,3.59s6.01-1.18,8.28-3.54c2.26-2.36,3.4-5.58,3.4-9.67s-1.13-7.3-3.4-9.67"/>
    <path class="cls-2" d="M694.32,116.36c3.73,4.05,5.6,9.62,5.6,16.7v31.98h-16.27v-29.77c0-3.58-.93-6.35-2.78-8.33-1.85-1.98-4.34-2.97-7.47-2.97s-5.62.99-7.47,2.97c-1.85,1.98-2.78,4.76-2.78,8.33v29.77h-16.37v-54.18h16.37v7.09c1.66-2.36,3.89-4.23,6.7-5.6,2.81-1.37,5.97-2.06,9.48-2.06,6.25,0,11.25,2.02,14.98,6.08"/>
    <path class="cls-2" d="M711.17,123.01c2.07-4.15,4.9-7.34,8.47-9.57,3.57-2.24,7.56-3.35,11.97-3.35,3.51,0,6.72.74,9.62,2.2,2.9,1.47,5.18,3.45,6.84,5.94v-24.8h16.37v71.61h-16.37v-8.43c-1.53,2.55-3.72,4.59-6.56,6.13-2.84,1.53-6.14,2.3-9.91,2.3-4.4,0-8.39-1.13-11.97-3.4-3.57-2.26-6.4-5.48-8.47-9.67-2.08-4.18-3.11-9.01-3.11-14.5s1.04-10.31,3.11-14.45M744.67,127.89c-2.27-2.36-5.03-3.54-8.28-3.54s-6.01,1.17-8.28,3.49c-2.27,2.33-3.4,5.54-3.4,9.62s1.13,7.32,3.4,9.72c2.27,2.39,5.03,3.59,8.28,3.59s6.01-1.18,8.28-3.54c2.26-2.36,3.4-5.58,3.4-9.67s-1.13-7.3-3.4-9.67"/>
    <path class="cls-1" d="M447.82,108.3l-7.5,20.93h15.79l12.83-35.8c-9.47,0-17.93,5.95-21.12,14.87"/>
    <path class="cls-2" d="M427.5,165.03h0c9.47,0,17.93-5.95,21.12-14.87l7.5-20.93h-15.79l-12.83,35.8Z"/>
    <path class="cls-1" d="M305.43,221.27l2.82-32.26h13.59c1.92,0,3.73.36,5.43,1.1,1.71.73,3.2,1.79,4.47,3.19,1.27,1.4,2.23,3.09,2.87,5.07.64,1.98.85,4.24.63,6.77-.22,2.53-.83,4.79-1.81,6.77-.98,1.98-2.24,3.67-3.76,5.07-1.52,1.4-3.2,2.46-5.03,3.19-1.83.73-3.71,1.1-5.63,1.1h-13.59ZM309.39,217.81h9.79c2.31,0,4.35-.58,6.15-1.75,1.79-1.17,3.23-2.71,4.33-4.63,1.09-1.91,1.74-4.01,1.94-6.29.2-2.31-.08-4.42-.83-6.33-.76-1.92-1.93-3.45-3.52-4.6-1.59-1.15-3.54-1.73-5.84-1.73h-9.79l-2.22,25.34Z"/>
    <path class="cls-1" d="M349.68,221.66c-2.47,0-4.58-.56-6.33-1.68-1.75-1.12-3.06-2.64-3.92-4.55-.85-1.92-1.18-4.03-.98-6.33.2-2.34.88-4.46,2.02-6.36,1.14-1.9,2.67-3.41,4.59-4.53,1.92-1.12,4.11-1.68,6.58-1.68s4.6.56,6.31,1.68c1.7,1.12,2.96,2.63,3.77,4.53.81,1.9,1.11,4.02.91,6.36l-.13,1.46h-20.42c.07,1.43.42,2.74,1.05,3.92.63,1.19,1.53,2.13,2.7,2.83,1.17.7,2.57,1.05,4.2,1.05,1.72,0,3.2-.38,4.44-1.14s2.23-1.75,2.99-2.95h4c-1.04,2.18-2.53,3.95-4.49,5.33-1.96,1.38-4.38,2.07-7.27,2.07M342.43,207.14h16.57c-.14-2.08-.87-3.82-2.17-5.21-1.31-1.4-3.13-2.1-5.47-2.1s-4.28.7-5.81,2.1c-1.54,1.4-2.57,3.14-3.11,5.21"/>
    <polygon class="cls-1" points="372.67 221.27 365.25 196.9 369.24 196.9 375.15 217.37 384.59 196.9 388.59 196.9 376.96 221.27 372.67 221.27"/>
    <path class="cls-1" d="M400.16,221.66c-2.47,0-4.58-.56-6.33-1.68-1.75-1.12-3.06-2.64-3.92-4.55-.85-1.92-1.18-4.03-.98-6.33.2-2.34.88-4.46,2.02-6.36,1.14-1.9,2.67-3.41,4.59-4.53,1.92-1.12,4.11-1.68,6.58-1.68s4.6.56,6.31,1.68c1.7,1.12,2.96,2.63,3.77,4.53.81,1.9,1.11,4.02.91,6.36l-.13,1.46h-20.42c.07,1.43.42,2.74,1.05,3.92.63,1.19,1.53,2.13,2.7,2.83,1.17.7,2.57,1.05,4.2,1.05,1.72,0,3.2-.38,4.44-1.14s2.23-1.75,2.99-2.95h4c-1.04,2.18-2.53,3.95-4.49,5.33-1.96,1.38-4.38,2.07-7.27,2.07M392.91,207.14h16.57c-.14-2.08-.87-3.82-2.17-5.21-1.31-1.4-3.13-2.1-5.47-2.1s-4.28.7-5.81,2.1c-1.54,1.4-2.57,3.14-3.11,5.21"/>
    <polygon class="cls-1" points="416.52 221.27 419.5 187.16 423.16 187.16 420.17 221.27 416.52 221.27"/>
    <path class="cls-1" d="M437.05,221.66c-2.47,0-4.56-.56-6.29-1.68-1.72-1.12-2.98-2.64-3.79-4.55-.81-1.92-1.11-4.03-.91-6.33.21-2.34.88-4.46,2.02-6.36,1.14-1.9,2.67-3.41,4.59-4.53,1.92-1.12,4.11-1.68,6.58-1.68s4.6.56,6.31,1.68c1.7,1.12,2.96,2.63,3.77,4.53.81,1.9,1.11,4.02.91,6.36-.2,2.31-.88,4.42-2.02,6.33-1.14,1.92-2.66,3.43-4.56,4.55-1.9,1.12-4.1,1.68-6.6,1.68M437.34,218.34c1.82,0,3.39-.42,4.71-1.27,1.32-.85,2.37-1.97,3.15-3.39.77-1.41,1.23-2.95,1.38-4.6.15-1.69-.04-3.23-.57-4.63-.53-1.4-1.38-2.52-2.56-3.36-1.18-.85-2.67-1.27-4.49-1.27s-3.35.42-4.69,1.27c-1.34.85-2.4,1.96-3.17,3.36-.77,1.4-1.23,2.94-1.38,4.63-.15,1.66.05,3.19.57,4.6.52,1.41,1.38,2.54,2.58,3.39,1.19.85,2.68,1.27,4.47,1.27"/>
    <path class="cls-1" d="M453.14,230.91l2.98-34.01h3.65l-.34,3.9c1.03-1.33,2.29-2.38,3.81-3.14,1.51-.76,3.28-1.14,5.29-1.14,2.37,0,4.39.56,6.07,1.68,1.67,1.12,2.91,2.63,3.72,4.53.81,1.9,1.11,4.02.9,6.36-.2,2.31-.87,4.42-2.02,6.33-1.14,1.92-2.65,3.43-4.52,4.55-1.87,1.12-3.99,1.68-6.36,1.68-2.01,0-3.71-.4-5.09-1.19-1.38-.8-2.46-1.84-3.26-3.14l-1.19,13.6h-3.65ZM466.13,218.34c1.82,0,3.41-.42,4.76-1.27,1.36-.85,2.44-1.97,3.24-3.39.81-1.41,1.28-2.95,1.43-4.6.15-1.69-.06-3.23-.62-4.63-.56-1.4-1.44-2.52-2.65-3.36-1.21-.85-2.72-1.27-4.54-1.27s-3.35.42-4.69,1.27c-1.34.85-2.4,1.96-3.17,3.36-.77,1.4-1.23,2.94-1.38,4.63-.15,1.66.04,3.19.57,4.6.53,1.41,1.39,2.54,2.58,3.39,1.19.85,2.68,1.27,4.47,1.27"/>
    <path class="cls-1" d="M482.98,221.27l2.13-24.36h3.65l-2.13,24.36h-3.65ZM485.32,192.81l.42-4.78h3.95l-.42,4.78h-3.95Z"/>
    <path class="cls-1" d="M492.97,221.27l2.13-24.36h3.65l-.33,3.8c.98-1.17,2.14-2.16,3.48-2.97,1.34-.81,3-1.22,4.98-1.22,1.69,0,3.24.4,4.65,1.19,1.41.8,2.51,1.98,3.3,3.56.79,1.58,1.08,3.52.88,5.82l-1.24,14.18h-3.65l1.23-14.08c.19-2.21-.28-3.99-1.43-5.34-1.15-1.35-2.73-2.02-4.74-2.02-1.37,0-2.63.31-3.78.93-1.16.62-2.12,1.49-2.88,2.61-.76,1.12-1.21,2.41-1.34,3.87l-1.23,14.03h-3.65Z"/>
    <path class="cls-1" d="M530.82,231.3c-3.05,0-5.48-.66-7.28-1.97-1.8-1.32-2.95-3.03-3.45-5.14h4.04c.38,1.2,1.14,2.13,2.29,2.8,1.14.67,2.64,1,4.49,1,2.79,0,4.89-.66,6.29-1.97,1.4-1.32,2.21-3.22,2.43-5.73l.29-3.36c-1.02,1.3-2.29,2.35-3.81,3.14-1.52.8-3.28,1.2-5.29,1.2-2.37,0-4.4-.54-6.07-1.63-1.68-1.09-2.92-2.57-3.73-4.46-.81-1.88-1.11-3.98-.91-6.29.21-2.34.88-4.44,2.01-6.31,1.14-1.87,2.64-3.35,4.51-4.43,1.86-1.09,3.98-1.63,6.35-1.63,2.01,0,3.71.38,5.09,1.15,1.38.76,2.46,1.81,3.26,3.14l.34-3.9h3.66l-2.07,23.63c-.3,3.48-1.54,6.14-3.7,7.99-2.16,1.85-5.08,2.78-8.74,2.78M531.6,217.95c1.79,0,3.34-.41,4.66-1.22,1.32-.81,2.38-1.91,3.16-3.29.79-1.38,1.25-2.9,1.4-4.56.15-1.69-.05-3.21-.6-4.58-.55-1.36-1.41-2.45-2.59-3.26-1.18-.81-2.66-1.22-4.45-1.22s-3.37.41-4.73,1.22c-1.37.81-2.46,1.9-3.26,3.26-.8,1.36-1.28,2.89-1.42,4.58-.15,1.66.06,3.18.62,4.56.56,1.38,1.46,2.48,2.68,3.29,1.23.81,2.74,1.22,4.52,1.22"/>
    <path class="cls-1" d="M574.2,221.66c-3.22,0-5.93-.74-8.14-2.22-2.21-1.48-3.83-3.47-4.86-5.97-1.03-2.5-1.41-5.28-1.15-8.33.27-3.05,1.13-5.83,2.6-8.33,1.47-2.5,3.44-4.49,5.91-5.97,2.47-1.48,5.31-2.22,8.53-2.22,2.44,0,4.59.43,6.47,1.29,1.87.86,3.43,2.04,4.66,3.53,1.24,1.49,2.11,3.23,2.61,5.21h-3.85c-.64-1.98-1.78-3.56-3.44-4.73-1.65-1.17-3.81-1.75-6.47-1.75s-4.87.58-6.8,1.73c-1.94,1.15-3.46,2.71-4.57,4.65-1.11,1.95-1.78,4.14-1.99,6.58-.21,2.41.07,4.59.84,6.55.77,1.97,2.02,3.53,3.76,4.68,1.73,1.15,3.9,1.73,6.5,1.73s4.92-.59,6.78-1.75c1.86-1.17,3.28-2.74,4.26-4.73h3.85c-.85,1.95-2.03,3.68-3.52,5.19-1.5,1.51-3.26,2.7-5.28,3.56-2.02.86-4.25,1.29-6.69,1.29"/>
    <path class="cls-1" d="M593.53,221.27l2.13-24.36h3.65l-.52,5.99c.17-.42.47-.98.9-1.68.43-.7,1.04-1.4,1.82-2.12.78-.71,1.73-1.32,2.86-1.83,1.13-.5,2.45-.75,3.94-.75h.24l-.32,3.65h-.44c-1.82,0-3.43.5-4.83,1.49-1.4.99-2.52,2.27-3.36,3.85-.84,1.58-1.33,3.26-1.49,5.04l-.94,10.72h-3.65Z"/>
    <path class="cls-1" d="M620.49,221.66c-2.47,0-4.58-.56-6.33-1.68-1.75-1.12-3.06-2.64-3.91-4.55-.86-1.92-1.18-4.03-.98-6.33.2-2.34.88-4.46,2.02-6.36,1.14-1.9,2.67-3.41,4.59-4.53,1.92-1.12,4.11-1.68,6.58-1.68s4.6.56,6.31,1.68c1.7,1.12,2.96,2.63,3.77,4.53.81,1.9,1.11,4.02.91,6.36l-.13,1.46h-20.42c.07,1.43.42,2.74,1.05,3.92.63,1.19,1.53,2.13,2.7,2.83,1.17.7,2.57,1.05,4.2,1.05,1.72,0,3.2-.38,4.44-1.14,1.24-.76,2.23-1.75,2.99-2.95h4c-1.04,2.18-2.53,3.95-4.49,5.33-1.96,1.38-4.38,2.07-7.27,2.07M613.23,207.14h16.57c-.14-2.08-.87-3.82-2.17-5.21-1.31-1.4-3.13-2.1-5.47-2.1s-4.28.7-5.81,2.1c-1.54,1.4-2.57,3.14-3.11,5.21"/>
    <path class="cls-1" d="M647.09,221.66c-2.37,0-4.39-.56-6.07-1.68-1.67-1.12-2.91-2.64-3.72-4.55-.81-1.92-1.11-4.03-.91-6.33.21-2.34.88-4.46,2.02-6.36,1.14-1.9,2.64-3.41,4.51-4.53,1.87-1.12,3.99-1.68,6.36-1.68,2.01,0,3.71.39,5.09,1.17,1.38.78,2.46,1.84,3.26,3.17l.34-3.95h3.66l-2.13,24.36h-3.65l.34-3.9c-1.02,1.3-2.29,2.34-3.81,3.12-1.51.78-3.28,1.17-5.29,1.17M647.87,218.34c1.82,0,3.39-.42,4.72-1.27,1.32-.85,2.37-1.97,3.15-3.39.77-1.41,1.23-2.95,1.38-4.6.15-1.69-.04-3.23-.57-4.63-.53-1.4-1.38-2.52-2.56-3.36-1.18-.85-2.67-1.27-4.49-1.27s-3.37.42-4.74,1.27c-1.37.85-2.46,1.96-3.27,3.36-.8,1.4-1.28,2.94-1.43,4.63-.14,1.66.06,3.19.62,4.6.56,1.41,1.45,2.54,2.68,3.39,1.22.85,2.73,1.27,4.52,1.27"/>
    <polygon class="cls-1" points="668.47 221.27 670.32 200.12 665.35 200.12 665.63 196.9 670.6 196.9 671.36 188.18 675.02 188.18 674.25 196.9 679.86 196.9 679.57 200.12 673.97 200.12 672.12 221.27 668.47 221.27"/>
    <path class="cls-1" d="M681.72,221.27l2.13-24.36h3.66l-2.13,24.36h-3.65ZM684.06,192.81l.42-4.78h3.95l-.42,4.78h-3.95Z"/>
    <polygon class="cls-1" points="698.33 221.27 690.92 196.9 694.91 196.9 700.82 217.37 710.26 196.9 714.26 196.9 702.62 221.27 698.33 221.27"/>
    <path class="cls-1" d="M715.53,221.27l2.13-24.36h3.66l-2.13,24.36h-3.65ZM717.88,192.81l.42-4.78h3.95l-.42,4.78h-3.95Z"/>
    <polygon class="cls-1" points="728.15 221.27 730 200.12 725.03 200.12 725.31 196.9 730.28 196.9 731.05 188.18 734.7 188.18 733.94 196.9 739.54 196.9 739.26 200.12 733.66 200.12 731.81 221.27 728.15 221.27"/>
    <polygon class="cls-1" points="743.09 230.91 748.4 220.93 740.56 196.9 744.61 196.9 750.71 216.88 760.44 196.9 764.44 196.9 747.04 230.91 743.09 230.91"/>
  </g>
</svg>